<svg width="700" height="906" viewBox="0 0 700 906" fill="none" xmlns="http://www.w3.org/2000/svg">
<path d="M537.347 -43.5242C582.924 39.0198 555.06 170.793 581.844 278.801C608.629 386.808 690.062 470.837 699.134 559.323C708.207 647.596 644.917 740.113 558.516 809.926C472.33 879.526 363.032 926.421 275.982 896.714C188.716 867.006 123.699 760.484 35.3533 691.521C-52.9924 622.345 -164.667 590.728 -218.236 519.006C-272.021 447.496 -267.917 336.093 -217.804 256.096C-167.691 176.098 -71.7848 127.505 14.4009 57.9052C100.803 -11.9071 177.268 -102.727 275.118 -131.373C372.968 -160.02 491.77 -126.28 537.347 -43.5242Z" fill="url(#paint0_linear)"/>
<defs>
<linearGradient id="paint0_linear" x1="221.5" y1="-203.789" x2="221.5" y2="642.971" gradientUnits="userSpaceOnUse">
<stop stop-color="#FF9B53"/>
<stop offset="1" stop-color="#F8B653"/>
</linearGradient>
</defs>
</svg>
