<svg width="283" height="291" viewBox="0 0 283 291" fill="none" xmlns="http://www.w3.org/2000/svg">
<path d="M45.7191 174.963C95.9521 167.72 135.362 230.346 97.7158 259.759C81.4791 272.444 57.9062 271.236 39.4771 260.545C-3.08463 235.851 2.58649 181.175 45.7191 174.963Z" fill="#FAC663"/>
<path d="M86.9766 154.297C45.3347 186.831 -22.292 125.973 8.20167 83.4569C22.0959 64.0882 52.5021 60.7595 77.2014 78.8036C104.893 99.0223 110.387 136.007 86.9766 154.297Z" fill="#FAC663"/>
<path d="M195.869 271.598C200.405 265.483 209.866 256.436 220.493 247.894C231.719 238.856 244.244 230.379 253.598 226.495C278.89 216.041 296.238 179.973 267.349 155.783C240.64 133.423 221.219 151.058 196.469 129.428C171.47 107.556 142.688 110.062 124.89 125.529C108.42 139.846 101.367 165.268 115.477 192.716C130.519 221.959 108.74 236.488 123.976 267.798C140.454 301.722 179.649 293.493 195.869 271.598Z" fill="#FAC663"/>
<path d="M160.267 97.0397C148.488 106.242 133.036 107.316 119.248 101.254C78.2517 83.2262 72.0772 18.7523 110.61 3.48811C159.333 -15.8352 201.886 64.5234 160.267 97.0397Z" fill="#FAC663"/>
<path d="M216.263 129.915C177.374 107.699 177.896 43.0402 217.973 31.9451C266.246 18.5786 301.113 96.3534 261.024 127.675C248.158 137.727 231.046 138.361 216.263 129.915Z" fill="#FAC663"/>
</svg>
